<?xml version="1.0" encoding="utf-8" standalone="no"?>
<!DOCTYPE svg PUBLIC "-//W3C//DTD SVG 1.1//EN"
  "http://www.w3.org/Graphics/SVG/1.1/DTD/svg11.dtd">
<svg xmlns:xlink="http://www.w3.org/1999/xlink" width="1728pt" height="576pt" viewBox="0 0 1728 576" xmlns="http://www.w3.org/2000/svg" version="1.1">
 <metadata>
  <rdf:RDF xmlns:dc="http://purl.org/dc/elements/1.1/" xmlns:cc="http://creativecommons.org/ns#" xmlns:rdf="http://www.w3.org/1999/02/22-rdf-syntax-ns#">
   <cc:Work>
    <dc:type rdf:resource="http://purl.org/dc/dcmitype/StillImage"/>
    <dc:date>2025-12-21T01:04:51.065186</dc:date>
    <dc:format>image/svg+xml</dc:format>
    <dc:creator>
     <cc:Agent>
      <dc:title>Matplotlib v3.8.0, https://matplotlib.org/</dc:title>
     </cc:Agent>
    </dc:creator>
   </cc:Work>
  </rdf:RDF>
 </metadata>
 <defs>
  <style type="text/css">*{stroke-linejoin: round; stroke-linecap: butt}</style>
 </defs>
 <g id="figure_1">
  <g id="patch_1">
   <path d="M 0 576 
L 1728 576 
L 1728 0 
L 0 0 
z
" style="fill: #ffffff"/>
  </g>
  <g id="axes_1">
   <g id="patch_2">
    <path d="M 115.02 497.124 
L 1715.04 497.124 
L 1715.04 54.56 
L 115.02 54.56 
z
" style="fill: #ffffff"/>
   </g>
   <g id="matplotlib.axis_1">
    <g id="xtick_1">
     <g id="line2d_1">
      <path d="M 187.748182 497.124 
L 187.748182 54.56 
" clip-path="url(#p433027d0e0)" style="fill: none; stroke: #cccccc; stroke-linecap: round"/>
     </g>
     <g id="text_1">
      <!-- $\mathdefault{2^{7}}$ -->
      <g style="fill: #262626" transform="translate(174.308182 524.86025) scale(0.24 -0.24)">
       <defs>
        <path id="DejaVuSans-32" d="M 1228 531 
L 3431 531 
L 3431 0 
L 469 0 
L 469 531 
Q 828 903 1448 1529 
Q 2069 2156 2228 2338 
Q 2531 2678 2651 2914 
Q 2772 3150 2772 3378 
Q 2772 3750 2511 3984 
Q 2250 4219 1831 4219 
Q 1534 4219 1204 4116 
Q 875 4013 500 3803 
L 500 4441 
Q 881 4594 1212 4672 
Q 1544 4750 1819 4750 
Q 2544 4750 2975 4387 
Q 3406 4025 3406 3419 
Q 3406 3131 3298 2873 
Q 3191 2616 2906 2266 
Q 2828 2175 2409 1742 
Q 1991 1309 1228 531 
z
" transform="scale(0.015625)"/>
        <path id="DejaVuSans-37" d="M 525 4666 
L 3525 4666 
L 3525 4397 
L 1831 0 
L 1172 0 
L 2766 4134 
L 525 4134 
L 525 4666 
z
" transform="scale(0.015625)"/>
       </defs>
       <use xlink:href="#DejaVuSans-32" transform="translate(0 0.684375)"/>
       <use xlink:href="#DejaVuSans-37" transform="translate(64.580078 38.965625) scale(0.7)"/>
      </g>
     </g>
    </g>
    <g id="xtick_2">
     <g id="line2d_2">
      <path d="M 478.660909 497.124 
L 478.660909 54.56 
" clip-path="url(#p433027d0e0)" style="fill: none; stroke: #cccccc; stroke-linecap: round"/>
     </g>
     <g id="text_2">
      <!-- $\mathdefault{2^{8}}$ -->
      <g style="fill: #262626" transform="translate(465.220909 524.86025) scale(0.24 -0.24)">
       <defs>
        <path id="DejaVuSans-38" d="M 2034 2216 
Q 1584 2216 1326 1975 
Q 1069 1734 1069 1313 
Q 1069 891 1326 650 
Q 1584 409 2034 409 
Q 2484 409 2743 651 
Q 3003 894 3003 1313 
Q 3003 1734 2745 1975 
Q 2488 2216 2034 2216 
z
M 1403 2484 
Q 997 2584 770 2862 
Q 544 3141 544 3541 
Q 544 4100 942 4425 
Q 1341 4750 2034 4750 
Q 2731 4750 3128 4425 
Q 3525 4100 3525 3541 
Q 3525 3141 3298 2862 
Q 3072 2584 2669 2484 
Q 3125 2378 3379 2068 
Q 3634 1759 3634 1313 
Q 3634 634 3220 271 
Q 2806 -91 2034 -91 
Q 1263 -91 848 271 
Q 434 634 434 1313 
Q 434 1759 690 2068 
Q 947 2378 1403 2484 
z
M 1172 3481 
Q 1172 3119 1398 2916 
Q 1625 2713 2034 2713 
Q 2441 2713 2670 2916 
Q 2900 3119 2900 3481 
Q 2900 3844 2670 4047 
Q 2441 4250 2034 4250 
Q 1625 4250 1398 4047 
Q 1172 3844 1172 3481 
z
" transform="scale(0.015625)"/>
       </defs>
       <use xlink:href="#DejaVuSans-32" transform="translate(0 0.765625)"/>
       <use xlink:href="#DejaVuSans-38" transform="translate(64.580078 39.046875) scale(0.7)"/>
      </g>
     </g>
    </g>
    <g id="xtick_3">
     <g id="line2d_3">
      <path d="M 769.573636 497.124 
L 769.573636 54.56 
" clip-path="url(#p433027d0e0)" style="fill: none; stroke: #cccccc; stroke-linecap: round"/>
     </g>
     <g id="text_3">
      <!-- $\mathdefault{2^{9}}$ -->
      <g style="fill: #262626" transform="translate(756.133636 524.86025) scale(0.24 -0.24)">
       <defs>
        <path id="DejaVuSans-39" d="M 703 97 
L 703 672 
Q 941 559 1184 500 
Q 1428 441 1663 441 
Q 2288 441 2617 861 
Q 2947 1281 2994 2138 
Q 2813 1869 2534 1725 
Q 2256 1581 1919 1581 
Q 1219 1581 811 2004 
Q 403 2428 403 3163 
Q 403 3881 828 4315 
Q 1253 4750 1959 4750 
Q 2769 4750 3195 4129 
Q 3622 3509 3622 2328 
Q 3622 1225 3098 567 
Q 2575 -91 1691 -91 
Q 1453 -91 1209 -44 
Q 966 3 703 97 
z
M 1959 2075 
Q 2384 2075 2632 2365 
Q 2881 2656 2881 3163 
Q 2881 3666 2632 3958 
Q 2384 4250 1959 4250 
Q 1534 4250 1286 3958 
Q 1038 3666 1038 3163 
Q 1038 2656 1286 2365 
Q 1534 2075 1959 2075 
z
" transform="scale(0.015625)"/>
       </defs>
       <use xlink:href="#DejaVuSans-32" transform="translate(0 0.765625)"/>
       <use xlink:href="#DejaVuSans-39" transform="translate(64.580078 39.046875) scale(0.7)"/>
      </g>
     </g>
    </g>
    <g id="xtick_4">
     <g id="line2d_4">
      <path d="M 1060.486364 497.124 
L 1060.486364 54.56 
" clip-path="url(#p433027d0e0)" style="fill: none; stroke: #cccccc; stroke-linecap: round"/>
     </g>
     <g id="text_4">
      <!-- $\mathdefault{2^{10}}$ -->
      <g style="fill: #262626" transform="translate(1041.646364 524.86025) scale(0.24 -0.24)">
       <defs>
        <path id="DejaVuSans-31" d="M 794 531 
L 1825 531 
L 1825 4091 
L 703 3866 
L 703 4441 
L 1819 4666 
L 2450 4666 
L 2450 531 
L 3481 531 
L 3481 0 
L 794 0 
L 794 531 
z
" transform="scale(0.015625)"/>
        <path id="DejaVuSans-30" d="M 2034 4250 
Q 1547 4250 1301 3770 
Q 1056 3291 1056 2328 
Q 1056 1369 1301 889 
Q 1547 409 2034 409 
Q 2525 409 2770 889 
Q 3016 1369 3016 2328 
Q 3016 3291 2770 3770 
Q 2525 4250 2034 4250 
z
M 2034 4750 
Q 2819 4750 3233 4129 
Q 3647 3509 3647 2328 
Q 3647 1150 3233 529 
Q 2819 -91 2034 -91 
Q 1250 -91 836 529 
Q 422 1150 422 2328 
Q 422 3509 836 4129 
Q 1250 4750 2034 4750 
z
" transform="scale(0.015625)"/>
       </defs>
       <use xlink:href="#DejaVuSans-32" transform="translate(0 0.765625)"/>
       <use xlink:href="#DejaVuSans-31" transform="translate(64.580078 39.046875) scale(0.7)"/>
       <use xlink:href="#DejaVuSans-30" transform="translate(109.116211 39.046875) scale(0.7)"/>
      </g>
     </g>
    </g>
    <g id="xtick_5">
     <g id="line2d_5">
      <path d="M 1351.399091 497.124 
L 1351.399091 54.56 
" clip-path="url(#p433027d0e0)" style="fill: none; stroke: #cccccc; stroke-linecap: round"/>
     </g>
     <g id="text_5">
      <!-- $\mathdefault{2^{11}}$ -->
      <g style="fill: #262626" transform="translate(1332.559091 524.86025) scale(0.24 -0.24)">
       <use xlink:href="#DejaVuSans-32" transform="translate(0 0.684375)"/>
       <use xlink:href="#DejaVuSans-31" transform="translate(64.580078 38.965625) scale(0.7)"/>
       <use xlink:href="#DejaVuSans-31" transform="translate(109.116211 38.965625) scale(0.7)"/>
      </g>
     </g>
    </g>
    <g id="xtick_6">
     <g id="line2d_6">
      <path d="M 1642.311818 497.124 
L 1642.311818 54.56 
" clip-path="url(#p433027d0e0)" style="fill: none; stroke: #cccccc; stroke-linecap: round"/>
     </g>
     <g id="text_6">
      <!-- $\mathdefault{2^{12}}$ -->
      <g style="fill: #262626" transform="translate(1623.471818 524.86025) scale(0.24 -0.24)">
       <use xlink:href="#DejaVuSans-32" transform="translate(0 0.765625)"/>
       <use xlink:href="#DejaVuSans-31" transform="translate(64.580078 39.046875) scale(0.7)"/>
       <use xlink:href="#DejaVuSans-32" transform="translate(109.116211 39.046875) scale(0.7)"/>
      </g>
     </g>
    </g>
    <g id="text_7">
     <!-- Problem Size (N) -->
     <g style="fill: #262626" transform="translate(798.762188 555.127125) scale(0.28 -0.28)">
      <defs>
       <path id="DejaVuSans-50" d="M 1259 4147 
L 1259 2394 
L 2053 2394 
Q 2494 2394 2734 2622 
Q 2975 2850 2975 3272 
Q 2975 3691 2734 3919 
Q 2494 4147 2053 4147 
L 1259 4147 
z
M 628 4666 
L 2053 4666 
Q 2838 4666 3239 4311 
Q 3641 3956 3641 3272 
Q 3641 2581 3239 2228 
Q 2838 1875 2053 1875 
L 1259 1875 
L 1259 0 
L 628 0 
L 628 4666 
z
" transform="scale(0.015625)"/>
       <path id="DejaVuSans-72" d="M 2631 2963 
Q 2534 3019 2420 3045 
Q 2306 3072 2169 3072 
Q 1681 3072 1420 2755 
Q 1159 2438 1159 1844 
L 1159 0 
L 581 0 
L 581 3500 
L 1159 3500 
L 1159 2956 
Q 1341 3275 1631 3429 
Q 1922 3584 2338 3584 
Q 2397 3584 2469 3576 
Q 2541 3569 2628 3553 
L 2631 2963 
z
" transform="scale(0.015625)"/>
       <path id="DejaVuSans-6f" d="M 1959 3097 
Q 1497 3097 1228 2736 
Q 959 2375 959 1747 
Q 959 1119 1226 758 
Q 1494 397 1959 397 
Q 2419 397 2687 759 
Q 2956 1122 2956 1747 
Q 2956 2369 2687 2733 
Q 2419 3097 1959 3097 
z
M 1959 3584 
Q 2709 3584 3137 3096 
Q 3566 2609 3566 1747 
Q 3566 888 3137 398 
Q 2709 -91 1959 -91 
Q 1206 -91 779 398 
Q 353 888 353 1747 
Q 353 2609 779 3096 
Q 1206 3584 1959 3584 
z
" transform="scale(0.015625)"/>
       <path id="DejaVuSans-62" d="M 3116 1747 
Q 3116 2381 2855 2742 
Q 2594 3103 2138 3103 
Q 1681 3103 1420 2742 
Q 1159 2381 1159 1747 
Q 1159 1113 1420 752 
Q 1681 391 2138 391 
Q 2594 391 2855 752 
Q 3116 1113 3116 1747 
z
M 1159 2969 
Q 1341 3281 1617 3432 
Q 1894 3584 2278 3584 
Q 2916 3584 3314 3078 
Q 3713 2572 3713 1747 
Q 3713 922 3314 415 
Q 2916 -91 2278 -91 
Q 1894 -91 1617 61 
Q 1341 213 1159 525 
L 1159 0 
L 581 0 
L 581 4863 
L 1159 4863 
L 1159 2969 
z
" transform="scale(0.015625)"/>
       <path id="DejaVuSans-6c" d="M 603 4863 
L 1178 4863 
L 1178 0 
L 603 0 
L 603 4863 
z
" transform="scale(0.015625)"/>
       <path id="DejaVuSans-65" d="M 3597 1894 
L 3597 1613 
L 953 1613 
Q 991 1019 1311 708 
Q 1631 397 2203 397 
Q 2534 397 2845 478 
Q 3156 559 3463 722 
L 3463 178 
Q 3153 47 2828 -22 
Q 2503 -91 2169 -91 
Q 1331 -91 842 396 
Q 353 884 353 1716 
Q 353 2575 817 3079 
Q 1281 3584 2069 3584 
Q 2775 3584 3186 3129 
Q 3597 2675 3597 1894 
z
M 3022 2063 
Q 3016 2534 2758 2815 
Q 2500 3097 2075 3097 
Q 1594 3097 1305 2825 
Q 1016 2553 972 2059 
L 3022 2063 
z
" transform="scale(0.015625)"/>
       <path id="DejaVuSans-6d" d="M 3328 2828 
Q 3544 3216 3844 3400 
Q 4144 3584 4550 3584 
Q 5097 3584 5394 3201 
Q 5691 2819 5691 2113 
L 5691 0 
L 5113 0 
L 5113 2094 
Q 5113 2597 4934 2840 
Q 4756 3084 4391 3084 
Q 3944 3084 3684 2787 
Q 3425 2491 3425 1978 
L 3425 0 
L 2847 0 
L 2847 2094 
Q 2847 2600 2669 2842 
Q 2491 3084 2119 3084 
Q 1678 3084 1418 2786 
Q 1159 2488 1159 1978 
L 1159 0 
L 581 0 
L 581 3500 
L 1159 3500 
L 1159 2956 
Q 1356 3278 1631 3431 
Q 1906 3584 2284 3584 
Q 2666 3584 2933 3390 
Q 3200 3197 3328 2828 
z
" transform="scale(0.015625)"/>
       <path id="DejaVuSans-20" transform="scale(0.015625)"/>
       <path id="DejaVuSans-53" d="M 3425 4513 
L 3425 3897 
Q 3066 4069 2747 4153 
Q 2428 4238 2131 4238 
Q 1616 4238 1336 4038 
Q 1056 3838 1056 3469 
Q 1056 3159 1242 3001 
Q 1428 2844 1947 2747 
L 2328 2669 
Q 3034 2534 3370 2195 
Q 3706 1856 3706 1288 
Q 3706 609 3251 259 
Q 2797 -91 1919 -91 
Q 1588 -91 1214 -16 
Q 841 59 441 206 
L 441 856 
Q 825 641 1194 531 
Q 1563 422 1919 422 
Q 2459 422 2753 634 
Q 3047 847 3047 1241 
Q 3047 1584 2836 1778 
Q 2625 1972 2144 2069 
L 1759 2144 
Q 1053 2284 737 2584 
Q 422 2884 422 3419 
Q 422 4038 858 4394 
Q 1294 4750 2059 4750 
Q 2388 4750 2728 4690 
Q 3069 4631 3425 4513 
z
" transform="scale(0.015625)"/>
       <path id="DejaVuSans-69" d="M 603 3500 
L 1178 3500 
L 1178 0 
L 603 0 
L 603 3500 
z
M 603 4863 
L 1178 4863 
L 1178 4134 
L 603 4134 
L 603 4863 
z
" transform="scale(0.015625)"/>
       <path id="DejaVuSans-7a" d="M 353 3500 
L 3084 3500 
L 3084 2975 
L 922 459 
L 3084 459 
L 3084 0 
L 275 0 
L 275 525 
L 2438 3041 
L 353 3041 
L 353 3500 
z
" transform="scale(0.015625)"/>
       <path id="DejaVuSans-28" d="M 1984 4856 
Q 1566 4138 1362 3434 
Q 1159 2731 1159 2009 
Q 1159 1288 1364 580 
Q 1569 -128 1984 -844 
L 1484 -844 
Q 1016 -109 783 600 
Q 550 1309 550 2009 
Q 550 2706 781 3412 
Q 1013 4119 1484 4856 
L 1984 4856 
z
" transform="scale(0.015625)"/>
       <path id="DejaVuSans-4e" d="M 628 4666 
L 1478 4666 
L 3547 763 
L 3547 4666 
L 4159 4666 
L 4159 0 
L 3309 0 
L 1241 3903 
L 1241 0 
L 628 0 
L 628 4666 
z
" transform="scale(0.015625)"/>
       <path id="DejaVuSans-29" d="M 513 4856 
L 1013 4856 
Q 1481 4119 1714 3412 
Q 1947 2706 1947 2009 
Q 1947 1309 1714 600 
Q 1481 -109 1013 -844 
L 513 -844 
Q 928 -128 1133 580 
Q 1338 1288 1338 2009 
Q 1338 2731 1133 3434 
Q 928 4138 513 4856 
z
" transform="scale(0.015625)"/>
      </defs>
      <use xlink:href="#DejaVuSans-50"/>
      <use xlink:href="#DejaVuSans-72" x="58.552734"/>
      <use xlink:href="#DejaVuSans-6f" x="97.416016"/>
      <use xlink:href="#DejaVuSans-62" x="158.597656"/>
      <use xlink:href="#DejaVuSans-6c" x="222.074219"/>
      <use xlink:href="#DejaVuSans-65" x="249.857422"/>
      <use xlink:href="#DejaVuSans-6d" x="311.380859"/>
      <use xlink:href="#DejaVuSans-20" x="408.792969"/>
      <use xlink:href="#DejaVuSans-53" x="440.580078"/>
      <use xlink:href="#DejaVuSans-69" x="504.056641"/>
      <use xlink:href="#DejaVuSans-7a" x="531.839844"/>
      <use xlink:href="#DejaVuSans-65" x="584.330078"/>
      <use xlink:href="#DejaVuSans-20" x="645.853516"/>
      <use xlink:href="#DejaVuSans-28" x="677.640625"/>
      <use xlink:href="#DejaVuSans-4e" x="716.654297"/>
      <use xlink:href="#DejaVuSans-29" x="791.458984"/>
     </g>
    </g>
   </g>
   <g id="matplotlib.axis_2">
    <g id="ytick_1">
     <g id="line2d_7">
      <path d="M 115.02 482.918383 
L 1715.04 482.918383 
" clip-path="url(#p433027d0e0)" style="fill: none; stroke: #cccccc; stroke-linecap: round"/>
     </g>
     <g id="text_8">
      <!-- 0 -->
      <g style="fill: #262626" transform="translate(90.25 492.036508) scale(0.24 -0.24)">
       <use xlink:href="#DejaVuSans-30"/>
      </g>
     </g>
    </g>
    <g id="ytick_2">
     <g id="line2d_8">
      <path d="M 115.02 426.672425 
L 1715.04 426.672425 
" clip-path="url(#p433027d0e0)" style="fill: none; stroke: #cccccc; stroke-linecap: round"/>
     </g>
     <g id="text_9">
      <!-- 1000 -->
      <g style="fill: #262626" transform="translate(44.44 435.79055) scale(0.24 -0.24)">
       <use xlink:href="#DejaVuSans-31"/>
       <use xlink:href="#DejaVuSans-30" x="63.623047"/>
       <use xlink:href="#DejaVuSans-30" x="127.246094"/>
       <use xlink:href="#DejaVuSans-30" x="190.869141"/>
      </g>
     </g>
    </g>
    <g id="ytick_3">
     <g id="line2d_9">
      <path d="M 115.02 370.426466 
L 1715.04 370.426466 
" clip-path="url(#p433027d0e0)" style="fill: none; stroke: #cccccc; stroke-linecap: round"/>
     </g>
     <g id="text_10">
      <!-- 2000 -->
      <g style="fill: #262626" transform="translate(44.44 379.544591) scale(0.24 -0.24)">
       <use xlink:href="#DejaVuSans-32"/>
       <use xlink:href="#DejaVuSans-30" x="63.623047"/>
       <use xlink:href="#DejaVuSans-30" x="127.246094"/>
       <use xlink:href="#DejaVuSans-30" x="190.869141"/>
      </g>
     </g>
    </g>
    <g id="ytick_4">
     <g id="line2d_10">
      <path d="M 115.02 314.180508 
L 1715.04 314.180508 
" clip-path="url(#p433027d0e0)" style="fill: none; stroke: #cccccc; stroke-linecap: round"/>
     </g>
     <g id="text_11">
      <!-- 3000 -->
      <g style="fill: #262626" transform="translate(44.44 323.298633) scale(0.24 -0.24)">
       <defs>
        <path id="DejaVuSans-33" d="M 2597 2516 
Q 3050 2419 3304 2112 
Q 3559 1806 3559 1356 
Q 3559 666 3084 287 
Q 2609 -91 1734 -91 
Q 1441 -91 1130 -33 
Q 819 25 488 141 
L 488 750 
Q 750 597 1062 519 
Q 1375 441 1716 441 
Q 2309 441 2620 675 
Q 2931 909 2931 1356 
Q 2931 1769 2642 2001 
Q 2353 2234 1838 2234 
L 1294 2234 
L 1294 2753 
L 1863 2753 
Q 2328 2753 2575 2939 
Q 2822 3125 2822 3475 
Q 2822 3834 2567 4026 
Q 2313 4219 1838 4219 
Q 1578 4219 1281 4162 
Q 984 4106 628 3988 
L 628 4550 
Q 988 4650 1302 4700 
Q 1616 4750 1894 4750 
Q 2613 4750 3031 4423 
Q 3450 4097 3450 3541 
Q 3450 3153 3228 2886 
Q 3006 2619 2597 2516 
z
" transform="scale(0.015625)"/>
       </defs>
       <use xlink:href="#DejaVuSans-33"/>
       <use xlink:href="#DejaVuSans-30" x="63.623047"/>
       <use xlink:href="#DejaVuSans-30" x="127.246094"/>
       <use xlink:href="#DejaVuSans-30" x="190.869141"/>
      </g>
     </g>
    </g>
    <g id="ytick_5">
     <g id="line2d_11">
      <path d="M 115.02 257.93455 
L 1715.04 257.93455 
" clip-path="url(#p433027d0e0)" style="fill: none; stroke: #cccccc; stroke-linecap: round"/>
     </g>
     <g id="text_12">
      <!-- 4000 -->
      <g style="fill: #262626" transform="translate(44.44 267.052675) scale(0.24 -0.24)">
       <defs>
        <path id="DejaVuSans-34" d="M 2419 4116 
L 825 1625 
L 2419 1625 
L 2419 4116 
z
M 2253 4666 
L 3047 4666 
L 3047 1625 
L 3713 1625 
L 3713 1100 
L 3047 1100 
L 3047 0 
L 2419 0 
L 2419 1100 
L 313 1100 
L 313 1709 
L 2253 4666 
z
" transform="scale(0.015625)"/>
       </defs>
       <use xlink:href="#DejaVuSans-34"/>
       <use xlink:href="#DejaVuSans-30" x="63.623047"/>
       <use xlink:href="#DejaVuSans-30" x="127.246094"/>
       <use xlink:href="#DejaVuSans-30" x="190.869141"/>
      </g>
     </g>
    </g>
    <g id="ytick_6">
     <g id="line2d_12">
      <path d="M 115.02 201.688592 
L 1715.04 201.688592 
" clip-path="url(#p433027d0e0)" style="fill: none; stroke: #cccccc; stroke-linecap: round"/>
     </g>
     <g id="text_13">
      <!-- 5000 -->
      <g style="fill: #262626" transform="translate(44.44 210.806717) scale(0.24 -0.24)">
       <defs>
        <path id="DejaVuSans-35" d="M 691 4666 
L 3169 4666 
L 3169 4134 
L 1269 4134 
L 1269 2991 
Q 1406 3038 1543 3061 
Q 1681 3084 1819 3084 
Q 2600 3084 3056 2656 
Q 3513 2228 3513 1497 
Q 3513 744 3044 326 
Q 2575 -91 1722 -91 
Q 1428 -91 1123 -41 
Q 819 9 494 109 
L 494 744 
Q 775 591 1075 516 
Q 1375 441 1709 441 
Q 2250 441 2565 725 
Q 2881 1009 2881 1497 
Q 2881 1984 2565 2268 
Q 2250 2553 1709 2553 
Q 1456 2553 1204 2497 
Q 953 2441 691 2322 
L 691 4666 
z
" transform="scale(0.015625)"/>
       </defs>
       <use xlink:href="#DejaVuSans-35"/>
       <use xlink:href="#DejaVuSans-30" x="63.623047"/>
       <use xlink:href="#DejaVuSans-30" x="127.246094"/>
       <use xlink:href="#DejaVuSans-30" x="190.869141"/>
      </g>
     </g>
    </g>
    <g id="ytick_7">
     <g id="line2d_13">
      <path d="M 115.02 145.442634 
L 1715.04 145.442634 
" clip-path="url(#p433027d0e0)" style="fill: none; stroke: #cccccc; stroke-linecap: round"/>
     </g>
     <g id="text_14">
      <!-- 6000 -->
      <g style="fill: #262626" transform="translate(44.44 154.560759) scale(0.24 -0.24)">
       <defs>
        <path id="DejaVuSans-36" d="M 2113 2584 
Q 1688 2584 1439 2293 
Q 1191 2003 1191 1497 
Q 1191 994 1439 701 
Q 1688 409 2113 409 
Q 2538 409 2786 701 
Q 3034 994 3034 1497 
Q 3034 2003 2786 2293 
Q 2538 2584 2113 2584 
z
M 3366 4563 
L 3366 3988 
Q 3128 4100 2886 4159 
Q 2644 4219 2406 4219 
Q 1781 4219 1451 3797 
Q 1122 3375 1075 2522 
Q 1259 2794 1537 2939 
Q 1816 3084 2150 3084 
Q 2853 3084 3261 2657 
Q 3669 2231 3669 1497 
Q 3669 778 3244 343 
Q 2819 -91 2113 -91 
Q 1303 -91 875 529 
Q 447 1150 447 2328 
Q 447 3434 972 4092 
Q 1497 4750 2381 4750 
Q 2619 4750 2861 4703 
Q 3103 4656 3366 4563 
z
" transform="scale(0.015625)"/>
       </defs>
       <use xlink:href="#DejaVuSans-36"/>
       <use xlink:href="#DejaVuSans-30" x="63.623047"/>
       <use xlink:href="#DejaVuSans-30" x="127.246094"/>
       <use xlink:href="#DejaVuSans-30" x="190.869141"/>
      </g>
     </g>
    </g>
    <g id="ytick_8">
     <g id="line2d_14">
      <path d="M 115.02 89.196676 
L 1715.04 89.196676 
" clip-path="url(#p433027d0e0)" style="fill: none; stroke: #cccccc; stroke-linecap: round"/>
     </g>
     <g id="text_15">
      <!-- 7000 -->
      <g style="fill: #262626" transform="translate(44.44 98.314801) scale(0.24 -0.24)">
       <use xlink:href="#DejaVuSans-37"/>
       <use xlink:href="#DejaVuSans-30" x="63.623047"/>
       <use xlink:href="#DejaVuSans-30" x="127.246094"/>
       <use xlink:href="#DejaVuSans-30" x="190.869141"/>
      </g>
     </g>
    </g>
    <g id="text_16">
     <!-- Performance (GFLOPS/s) -->
     <g style="fill: #262626" transform="translate(34.616875 446.477937) rotate(-90) scale(0.28 -0.28)">
      <defs>
       <path id="DejaVuSans-66" d="M 2375 4863 
L 2375 4384 
L 1825 4384 
Q 1516 4384 1395 4259 
Q 1275 4134 1275 3809 
L 1275 3500 
L 2222 3500 
L 2222 3053 
L 1275 3053 
L 1275 0 
L 697 0 
L 697 3053 
L 147 3053 
L 147 3500 
L 697 3500 
L 697 3744 
Q 697 4328 969 4595 
Q 1241 4863 1831 4863 
L 2375 4863 
z
" transform="scale(0.015625)"/>
       <path id="DejaVuSans-61" d="M 2194 1759 
Q 1497 1759 1228 1600 
Q 959 1441 959 1056 
Q 959 750 1161 570 
Q 1363 391 1709 391 
Q 2188 391 2477 730 
Q 2766 1069 2766 1631 
L 2766 1759 
L 2194 1759 
z
M 3341 1997 
L 3341 0 
L 2766 0 
L 2766 531 
Q 2569 213 2275 61 
Q 1981 -91 1556 -91 
Q 1019 -91 701 211 
Q 384 513 384 1019 
Q 384 1609 779 1909 
Q 1175 2209 1959 2209 
L 2766 2209 
L 2766 2266 
Q 2766 2663 2505 2880 
Q 2244 3097 1772 3097 
Q 1472 3097 1187 3025 
Q 903 2953 641 2809 
L 641 3341 
Q 956 3463 1253 3523 
Q 1550 3584 1831 3584 
Q 2591 3584 2966 3190 
Q 3341 2797 3341 1997 
z
" transform="scale(0.015625)"/>
       <path id="DejaVuSans-6e" d="M 3513 2113 
L 3513 0 
L 2938 0 
L 2938 2094 
Q 2938 2591 2744 2837 
Q 2550 3084 2163 3084 
Q 1697 3084 1428 2787 
Q 1159 2491 1159 1978 
L 1159 0 
L 581 0 
L 581 3500 
L 1159 3500 
L 1159 2956 
Q 1366 3272 1645 3428 
Q 1925 3584 2291 3584 
Q 2894 3584 3203 3211 
Q 3513 2838 3513 2113 
z
" transform="scale(0.015625)"/>
       <path id="DejaVuSans-63" d="M 3122 3366 
L 3122 2828 
Q 2878 2963 2633 3030 
Q 2388 3097 2138 3097 
Q 1578 3097 1268 2742 
Q 959 2388 959 1747 
Q 959 1106 1268 751 
Q 1578 397 2138 397 
Q 2388 397 2633 464 
Q 2878 531 3122 666 
L 3122 134 
Q 2881 22 2623 -34 
Q 2366 -91 2075 -91 
Q 1284 -91 818 406 
Q 353 903 353 1747 
Q 353 2603 823 3093 
Q 1294 3584 2113 3584 
Q 2378 3584 2631 3529 
Q 2884 3475 3122 3366 
z
" transform="scale(0.015625)"/>
       <path id="DejaVuSans-47" d="M 3809 666 
L 3809 1919 
L 2778 1919 
L 2778 2438 
L 4434 2438 
L 4434 434 
Q 4069 175 3628 42 
Q 3188 -91 2688 -91 
Q 1594 -91 976 548 
Q 359 1188 359 2328 
Q 359 3472 976 4111 
Q 1594 4750 2688 4750 
Q 3144 4750 3555 4637 
Q 3966 4525 4313 4306 
L 4313 3634 
Q 3963 3931 3569 4081 
Q 3175 4231 2741 4231 
Q 1884 4231 1454 3753 
Q 1025 3275 1025 2328 
Q 1025 1384 1454 906 
Q 1884 428 2741 428 
Q 3075 428 3337 486 
Q 3600 544 3809 666 
z
" transform="scale(0.015625)"/>
       <path id="DejaVuSans-46" d="M 628 4666 
L 3309 4666 
L 3309 4134 
L 1259 4134 
L 1259 2759 
L 3109 2759 
L 3109 2228 
L 1259 2228 
L 1259 0 
L 628 0 
L 628 4666 
z
" transform="scale(0.015625)"/>
       <path id="DejaVuSans-4c" d="M 628 4666 
L 1259 4666 
L 1259 531 
L 3531 531 
L 3531 0 
L 628 0 
L 628 4666 
z
" transform="scale(0.015625)"/>
       <path id="DejaVuSans-4f" d="M 2522 4238 
Q 1834 4238 1429 3725 
Q 1025 3213 1025 2328 
Q 1025 1447 1429 934 
Q 1834 422 2522 422 
Q 3209 422 3611 934 
Q 4013 1447 4013 2328 
Q 4013 3213 3611 3725 
Q 3209 4238 2522 4238 
z
M 2522 4750 
Q 3503 4750 4090 4092 
Q 4678 3434 4678 2328 
Q 4678 1225 4090 567 
Q 3503 -91 2522 -91 
Q 1538 -91 948 565 
Q 359 1222 359 2328 
Q 359 3434 948 4092 
Q 1538 4750 2522 4750 
z
" transform="scale(0.015625)"/>
       <path id="DejaVuSans-2f" d="M 1625 4666 
L 2156 4666 
L 531 -594 
L 0 -594 
L 1625 4666 
z
" transform="scale(0.015625)"/>
       <path id="DejaVuSans-73" d="M 2834 3397 
L 2834 2853 
Q 2591 2978 2328 3040 
Q 2066 3103 1784 3103 
Q 1356 3103 1142 2972 
Q 928 2841 928 2578 
Q 928 2378 1081 2264 
Q 1234 2150 1697 2047 
L 1894 2003 
Q 2506 1872 2764 1633 
Q 3022 1394 3022 966 
Q 3022 478 2636 193 
Q 2250 -91 1575 -91 
Q 1294 -91 989 -36 
Q 684 19 347 128 
L 347 722 
Q 666 556 975 473 
Q 1284 391 1588 391 
Q 1994 391 2212 530 
Q 2431 669 2431 922 
Q 2431 1156 2273 1281 
Q 2116 1406 1581 1522 
L 1381 1569 
Q 847 1681 609 1914 
Q 372 2147 372 2553 
Q 372 3047 722 3315 
Q 1072 3584 1716 3584 
Q 2034 3584 2315 3537 
Q 2597 3491 2834 3397 
z
" transform="scale(0.015625)"/>
      </defs>
      <use xlink:href="#DejaVuSans-50"/>
      <use xlink:href="#DejaVuSans-65" x="56.677734"/>
      <use xlink:href="#DejaVuSans-72" x="118.201172"/>
      <use xlink:href="#DejaVuSans-66" x="159.314453"/>
      <use xlink:href="#DejaVuSans-6f" x="194.519531"/>
      <use xlink:href="#DejaVuSans-72" x="255.701172"/>
      <use xlink:href="#DejaVuSans-6d" x="295.064453"/>
      <use xlink:href="#DejaVuSans-61" x="392.476562"/>
      <use xlink:href="#DejaVuSans-6e" x="453.755859"/>
      <use xlink:href="#DejaVuSans-63" x="517.134766"/>
      <use xlink:href="#DejaVuSans-65" x="572.115234"/>
      <use xlink:href="#DejaVuSans-20" x="633.638672"/>
      <use xlink:href="#DejaVuSans-28" x="665.425781"/>
      <use xlink:href="#DejaVuSans-47" x="704.439453"/>
      <use xlink:href="#DejaVuSans-46" x="781.929688"/>
      <use xlink:href="#DejaVuSans-4c" x="839.449219"/>
      <use xlink:href="#DejaVuSans-4f" x="891.537109"/>
      <use xlink:href="#DejaVuSans-50" x="970.248047"/>
      <use xlink:href="#DejaVuSans-53" x="1030.550781"/>
      <use xlink:href="#DejaVuSans-2f" x="1094.027344"/>
      <use xlink:href="#DejaVuSans-73" x="1127.71875"/>
      <use xlink:href="#DejaVuSans-29" x="1179.818359"/>
     </g>
    </g>
   </g>
   <g id="PolyCollection_1"/>
   <g id="PolyCollection_2"/>
   <g id="PolyCollection_3"/>
   <g id="PolyCollection_4"/>
   <g id="PolyCollection_5"/>
   <g id="PolyCollection_6"/>
   <g id="PolyCollection_7"/>
   <g id="PolyCollection_8"/>
   <g id="PolyCollection_9"/>
   <g id="PolyCollection_10"/>
   <g id="PolyCollection_11"/>
   <g id="line2d_15">
    <path d="M 187.748182 455.201594 
L 478.660909 433.132754 
L 665.966869 425.047898 
L 769.573636 421.014845 
L 900.836691 421.788189 
L 1060.486364 418.969965 
" clip-path="url(#p433027d0e0)" style="fill: none; stroke: #481f70; stroke-width: 2.5; stroke-linecap: round"/>
    <defs>
     <path id="mdaec9e64f6" d="M 0 3 
C 0.795609 3 1.55874 2.683901 2.12132 2.12132 
C 2.683901 1.55874 3 0.795609 3 0 
C 3 -0.795609 2.683901 -1.55874 2.12132 -2.12132 
C 1.55874 -2.683901 0.795609 -3 0 -3 
C -0.795609 -3 -1.55874 -2.683901 -2.12132 -2.12132 
C -2.683901 -1.55874 -3 -0.795609 -3 0 
C -3 0.795609 -2.683901 1.55874 -2.12132 2.12132 
C -1.55874 2.683901 -0.795609 3 0 3 
z
" style="stroke: #ffffff; stroke-width: 0.75"/>
    </defs>
    <g clip-path="url(#p433027d0e0)">
     <use xlink:href="#mdaec9e64f6" x="187.748182" y="455.201594" style="fill: #481f70; stroke: #ffffff; stroke-width: 0.75"/>
     <use xlink:href="#mdaec9e64f6" x="478.660909" y="433.132754" style="fill: #481f70; stroke: #ffffff; stroke-width: 0.75"/>
     <use xlink:href="#mdaec9e64f6" x="665.966869" y="425.047898" style="fill: #481f70; stroke: #ffffff; stroke-width: 0.75"/>
     <use xlink:href="#mdaec9e64f6" x="769.573636" y="421.014845" style="fill: #481f70; stroke: #ffffff; stroke-width: 0.75"/>
     <use xlink:href="#mdaec9e64f6" x="900.836691" y="421.788189" style="fill: #481f70; stroke: #ffffff; stroke-width: 0.75"/>
     <use xlink:href="#mdaec9e64f6" x="1060.486364" y="418.969965" style="fill: #481f70; stroke: #ffffff; stroke-width: 0.75"/>
    </g>
   </g>
   <g id="line2d_16">
    <path d="M 187.748182 466.090332 
L 478.660909 419.591064 
L 665.966869 421.342488 
L 769.573636 403.867928 
L 900.836691 407.202056 
L 1060.486364 401.077672 
" clip-path="url(#p433027d0e0)" style="fill: none; stroke: #443983; stroke-width: 2.5; stroke-linecap: round"/>
    <defs>
     <path id="m7c157e3f4c" d="M -1.5 3 
L 0 1.5 
L 1.5 3 
L 3 1.5 
L 1.5 0 
L 3 -1.5 
L 1.5 -3 
L 0 -1.5 
L -1.5 -3 
L -3 -1.5 
L -1.5 0 
L -3 1.5 
z
" style="stroke: #ffffff; stroke-width: 0.75; stroke-linejoin: miter"/>
    </defs>
    <g clip-path="url(#p433027d0e0)">
     <use xlink:href="#m7c157e3f4c" x="187.748182" y="466.090332" style="fill: #443983; stroke: #ffffff; stroke-width: 0.75; stroke-linejoin: miter"/>
     <use xlink:href="#m7c157e3f4c" x="478.660909" y="419.591064" style="fill: #443983; stroke: #ffffff; stroke-width: 0.75; stroke-linejoin: miter"/>
     <use xlink:href="#m7c157e3f4c" x="665.966869" y="421.342488" style="fill: #443983; stroke: #ffffff; stroke-width: 0.75; stroke-linejoin: miter"/>
     <use xlink:href="#m7c157e3f4c" x="769.573636" y="403.867928" style="fill: #443983; stroke: #ffffff; stroke-width: 0.75; stroke-linejoin: miter"/>
     <use xlink:href="#m7c157e3f4c" x="900.836691" y="407.202056" style="fill: #443983; stroke: #ffffff; stroke-width: 0.75; stroke-linejoin: miter"/>
     <use xlink:href="#m7c157e3f4c" x="1060.486364" y="401.077672" style="fill: #443983; stroke: #ffffff; stroke-width: 0.75; stroke-linejoin: miter"/>
    </g>
   </g>
   <g id="line2d_17">
    <path d="M 187.748182 460.013536 
L 478.660909 389.46012 
L 665.966869 375.494623 
L 769.573636 347.371895 
L 900.836691 338.73086 
L 1060.486364 324.302681 
" clip-path="url(#p433027d0e0)" style="fill: none; stroke: #3b528b; stroke-width: 2.5; stroke-linecap: round"/>
    <defs>
     <path id="m106ac18a00" d="M -2.12132 -2.12132 
L -2.12132 2.12132 
L 2.12132 2.12132 
L 2.12132 -2.12132 
z
" style="stroke: #ffffff; stroke-width: 0.75; stroke-linejoin: miter"/>
    </defs>
    <g clip-path="url(#p433027d0e0)">
     <use xlink:href="#m106ac18a00" x="187.748182" y="460.013536" style="fill: #3b528b; stroke: #ffffff; stroke-width: 0.75; stroke-linejoin: miter"/>
     <use xlink:href="#m106ac18a00" x="478.660909" y="389.46012" style="fill: #3b528b; stroke: #ffffff; stroke-width: 0.75; stroke-linejoin: miter"/>
     <use xlink:href="#m106ac18a00" x="665.966869" y="375.494623" style="fill: #3b528b; stroke: #ffffff; stroke-width: 0.75; stroke-linejoin: miter"/>
     <use xlink:href="#m106ac18a00" x="769.573636" y="347.371895" style="fill: #3b528b; stroke: #ffffff; stroke-width: 0.75; stroke-linejoin: miter"/>
     <use xlink:href="#m106ac18a00" x="900.836691" y="338.73086" style="fill: #3b528b; stroke: #ffffff; stroke-width: 0.75; stroke-linejoin: miter"/>
     <use xlink:href="#m106ac18a00" x="1060.486364" y="324.302681" style="fill: #3b528b; stroke: #ffffff; stroke-width: 0.75; stroke-linejoin: miter"/>
    </g>
   </g>
   <g id="line2d_18">
    <path d="M 187.748182 459.799472 
L 478.660909 388.117007 
L 665.966869 373.350825 
L 769.573636 345.160456 
L 900.836691 339.115223 
L 1060.486364 320.175513 
L 1220.705613 324.409656 
L 1351.399091 312.215454 
L 1511.61834 292.38084 
" clip-path="url(#p433027d0e0)" style="fill: none; stroke: #31688e; stroke-width: 2.5; stroke-linecap: round"/>
    <defs>
     <path id="m5097eeb345" d="M -1 3 
L 1 3 
L 1 1 
L 3 1 
L 3 -1 
L 1 -1 
L 1 -3 
L -1 -3 
L -1 -1 
L -3 -1 
L -3 1 
L -1 1 
z
" style="stroke: #ffffff; stroke-width: 0.75; stroke-linejoin: miter"/>
    </defs>
    <g clip-path="url(#p433027d0e0)">
     <use xlink:href="#m5097eeb345" x="187.748182" y="459.799472" style="fill: #31688e; stroke: #ffffff; stroke-width: 0.75; stroke-linejoin: miter"/>
     <use xlink:href="#m5097eeb345" x="478.660909" y="388.117007" style="fill: #31688e; stroke: #ffffff; stroke-width: 0.75; stroke-linejoin: miter"/>
     <use xlink:href="#m5097eeb345" x="665.966869" y="373.350825" style="fill: #31688e; stroke: #ffffff; stroke-width: 0.75; stroke-linejoin: miter"/>
     <use xlink:href="#m5097eeb345" x="769.573636" y="345.160456" style="fill: #31688e; stroke: #ffffff; stroke-width: 0.75; stroke-linejoin: miter"/>
     <use xlink:href="#m5097eeb345" x="900.836691" y="339.115223" style="fill: #31688e; stroke: #ffffff; stroke-width: 0.75; stroke-linejoin: miter"/>
     <use xlink:href="#m5097eeb345" x="1060.486364" y="320.175513" style="fill: #31688e; stroke: #ffffff; stroke-width: 0.75; stroke-linejoin: miter"/>
     <use xlink:href="#m5097eeb345" x="1220.705613" y="324.409656" style="fill: #31688e; stroke: #ffffff; stroke-width: 0.75; stroke-linejoin: miter"/>
     <use xlink:href="#m5097eeb345" x="1351.399091" y="312.215454" style="fill: #31688e; stroke: #ffffff; stroke-width: 0.75; stroke-linejoin: miter"/>
     <use xlink:href="#m5097eeb345" x="1511.61834" y="292.38084" style="fill: #31688e; stroke: #ffffff; stroke-width: 0.75; stroke-linejoin: miter"/>
    </g>
   </g>
   <g id="line2d_19">
    <path d="M 187.748182 469.270254 
L 478.660909 416.229967 
L 665.966869 348.351454 
L 769.573636 247.325678 
L 900.836691 241.767919 
L 1060.486364 196.27215 
" clip-path="url(#p433027d0e0)" style="fill: none; stroke: #287c8e; stroke-width: 2.5; stroke-linecap: round"/>
    <defs>
     <path id="mb695f9211d" d="M 0 -3 
L -3 -0 
L -0 3 
L 3 0 
z
" style="stroke: #ffffff; stroke-width: 0.75; stroke-linejoin: miter"/>
    </defs>
    <g clip-path="url(#p433027d0e0)">
     <use xlink:href="#mb695f9211d" x="187.748182" y="469.270254" style="fill: #287c8e; stroke: #ffffff; stroke-width: 0.75; stroke-linejoin: miter"/>
     <use xlink:href="#mb695f9211d" x="478.660909" y="416.229967" style="fill: #287c8e; stroke: #ffffff; stroke-width: 0.75; stroke-linejoin: miter"/>
     <use xlink:href="#mb695f9211d" x="665.966869" y="348.351454" style="fill: #287c8e; stroke: #ffffff; stroke-width: 0.75; stroke-linejoin: miter"/>
     <use xlink:href="#mb695f9211d" x="769.573636" y="247.325678" style="fill: #287c8e; stroke: #ffffff; stroke-width: 0.75; stroke-linejoin: miter"/>
     <use xlink:href="#mb695f9211d" x="900.836691" y="241.767919" style="fill: #287c8e; stroke: #ffffff; stroke-width: 0.75; stroke-linejoin: miter"/>
     <use xlink:href="#mb695f9211d" x="1060.486364" y="196.27215" style="fill: #287c8e; stroke: #ffffff; stroke-width: 0.75; stroke-linejoin: miter"/>
    </g>
   </g>
   <g id="line2d_20">
    <path d="M 187.748182 468.061185 
L 478.660909 414.559878 
L 665.966869 346.528054 
L 769.573636 247.062446 
L 900.836691 242.520171 
L 1060.486364 194.854158 
L 1220.705613 196.40027 
L 1351.399091 167.155071 
L 1511.61834 150.295687 
" clip-path="url(#p433027d0e0)" style="fill: none; stroke: #21918c; stroke-width: 2.5; stroke-linecap: round"/>
    <defs>
     <path id="m78312e652f" d="M 0 -3 
L -1.06066 -1.06066 
L -3 -0 
L -1.06066 1.06066 
L -0 3 
L 1.06066 1.06066 
L 3 0 
L 1.06066 -1.06066 
z
" style="stroke: #ffffff; stroke-width: 0.75; stroke-linejoin: bevel"/>
    </defs>
    <g clip-path="url(#p433027d0e0)">
     <use xlink:href="#m78312e652f" x="187.748182" y="468.061185" style="fill: #21918c; stroke: #ffffff; stroke-width: 0.75; stroke-linejoin: bevel"/>
     <use xlink:href="#m78312e652f" x="478.660909" y="414.559878" style="fill: #21918c; stroke: #ffffff; stroke-width: 0.75; stroke-linejoin: bevel"/>
     <use xlink:href="#m78312e652f" x="665.966869" y="346.528054" style="fill: #21918c; stroke: #ffffff; stroke-width: 0.75; stroke-linejoin: bevel"/>
     <use xlink:href="#m78312e652f" x="769.573636" y="247.062446" style="fill: #21918c; stroke: #ffffff; stroke-width: 0.75; stroke-linejoin: bevel"/>
     <use xlink:href="#m78312e652f" x="900.836691" y="242.520171" style="fill: #21918c; stroke: #ffffff; stroke-width: 0.75; stroke-linejoin: bevel"/>
     <use xlink:href="#m78312e652f" x="1060.486364" y="194.854158" style="fill: #21918c; stroke: #ffffff; stroke-width: 0.75; stroke-linejoin: bevel"/>
     <use xlink:href="#m78312e652f" x="1220.705613" y="196.40027" style="fill: #21918c; stroke: #ffffff; stroke-width: 0.75; stroke-linejoin: bevel"/>
     <use xlink:href="#m78312e652f" x="1351.399091" y="167.155071" style="fill: #21918c; stroke: #ffffff; stroke-width: 0.75; stroke-linejoin: bevel"/>
     <use xlink:href="#m78312e652f" x="1511.61834" y="150.295687" style="fill: #21918c; stroke: #ffffff; stroke-width: 0.75; stroke-linejoin: bevel"/>
    </g>
   </g>
   <g id="line2d_21">
    <path d="M 187.748182 467.88055 
L 478.660909 416.004478 
L 665.966869 346.342992 
L 769.573636 247.763095 
L 900.836691 242.090889 
L 1060.486364 187.600078 
" clip-path="url(#p433027d0e0)" style="fill: none; stroke: #20a486; stroke-width: 2.5; stroke-linecap: round"/>
    <defs>
     <path id="mfcd5086268" d="M 0 -3 
L -3 3 
L 3 3 
z
" style="stroke: #ffffff; stroke-width: 0.75; stroke-linejoin: miter"/>
    </defs>
    <g clip-path="url(#p433027d0e0)">
     <use xlink:href="#mfcd5086268" x="187.748182" y="467.88055" style="fill: #20a486; stroke: #ffffff; stroke-width: 0.75; stroke-linejoin: miter"/>
     <use xlink:href="#mfcd5086268" x="478.660909" y="416.004478" style="fill: #20a486; stroke: #ffffff; stroke-width: 0.75; stroke-linejoin: miter"/>
     <use xlink:href="#mfcd5086268" x="665.966869" y="346.342992" style="fill: #20a486; stroke: #ffffff; stroke-width: 0.75; stroke-linejoin: miter"/>
     <use xlink:href="#mfcd5086268" x="769.573636" y="247.763095" style="fill: #20a486; stroke: #ffffff; stroke-width: 0.75; stroke-linejoin: miter"/>
     <use xlink:href="#mfcd5086268" x="900.836691" y="242.090889" style="fill: #20a486; stroke: #ffffff; stroke-width: 0.75; stroke-linejoin: miter"/>
     <use xlink:href="#mfcd5086268" x="1060.486364" y="187.600078" style="fill: #20a486; stroke: #ffffff; stroke-width: 0.75; stroke-linejoin: miter"/>
    </g>
   </g>
   <g id="line2d_22">
    <path d="M 187.748182 468.08346 
L 478.660909 414.559878 
L 665.966869 344.464376 
L 769.573636 246.974571 
L 900.836691 242.234153 
L 1060.486364 187.754929 
L 1220.705613 197.591314 
L 1351.399091 163.788586 
L 1511.61834 159.338305 
L 1642.311818 134.324513 
" clip-path="url(#p433027d0e0)" style="fill: none; stroke: #35b779; stroke-width: 2.5; stroke-linecap: round"/>
    <defs>
     <path id="m0ded96005c" d="M -2.12132 -2.12132 
L -1.5 -0 
L -2.12132 2.12132 
L -0 1.5 
L 2.12132 2.12132 
L 1.5 0 
L 2.12132 -2.12132 
L 0 -1.5 
z
" style="stroke: #ffffff; stroke-width: 0.75; stroke-linejoin: bevel"/>
    </defs>
    <g clip-path="url(#p433027d0e0)">
     <use xlink:href="#m0ded96005c" x="187.748182" y="468.08346" style="fill: #35b779; stroke: #ffffff; stroke-width: 0.75; stroke-linejoin: bevel"/>
     <use xlink:href="#m0ded96005c" x="478.660909" y="414.559878" style="fill: #35b779; stroke: #ffffff; stroke-width: 0.75; stroke-linejoin: bevel"/>
     <use xlink:href="#m0ded96005c" x="665.966869" y="344.464376" style="fill: #35b779; stroke: #ffffff; stroke-width: 0.75; stroke-linejoin: bevel"/>
     <use xlink:href="#m0ded96005c" x="769.573636" y="246.974571" style="fill: #35b779; stroke: #ffffff; stroke-width: 0.75; stroke-linejoin: bevel"/>
     <use xlink:href="#m0ded96005c" x="900.836691" y="242.234153" style="fill: #35b779; stroke: #ffffff; stroke-width: 0.75; stroke-linejoin: bevel"/>
     <use xlink:href="#m0ded96005c" x="1060.486364" y="187.754929" style="fill: #35b779; stroke: #ffffff; stroke-width: 0.75; stroke-linejoin: bevel"/>
     <use xlink:href="#m0ded96005c" x="1220.705613" y="197.591314" style="fill: #35b779; stroke: #ffffff; stroke-width: 0.75; stroke-linejoin: bevel"/>
     <use xlink:href="#m0ded96005c" x="1351.399091" y="163.788586" style="fill: #35b779; stroke: #ffffff; stroke-width: 0.75; stroke-linejoin: bevel"/>
     <use xlink:href="#m0ded96005c" x="1511.61834" y="159.338305" style="fill: #35b779; stroke: #ffffff; stroke-width: 0.75; stroke-linejoin: bevel"/>
     <use xlink:href="#m0ded96005c" x="1642.311818" y="134.324513" style="fill: #35b779; stroke: #ffffff; stroke-width: 0.75; stroke-linejoin: bevel"/>
    </g>
   </g>
   <g id="line2d_23">
    <path d="M 187.748182 467.409145 
L 478.660909 411.151249 
L 665.966869 365.694707 
L 769.573636 272.66832 
L 900.836691 264.927979 
L 1060.486364 233.818888 
" clip-path="url(#p433027d0e0)" style="fill: none; stroke: #5ec962; stroke-width: 2.5; stroke-linecap: round"/>
    <defs>
     <path id="m97a3148eaf" d="M -0 3 
L 3 -3 
L -3 -3 
z
" style="stroke: #ffffff; stroke-width: 0.75; stroke-linejoin: miter"/>
    </defs>
    <g clip-path="url(#p433027d0e0)">
     <use xlink:href="#m97a3148eaf" x="187.748182" y="467.409145" style="fill: #5ec962; stroke: #ffffff; stroke-width: 0.75; stroke-linejoin: miter"/>
     <use xlink:href="#m97a3148eaf" x="478.660909" y="411.151249" style="fill: #5ec962; stroke: #ffffff; stroke-width: 0.75; stroke-linejoin: miter"/>
     <use xlink:href="#m97a3148eaf" x="665.966869" y="365.694707" style="fill: #5ec962; stroke: #ffffff; stroke-width: 0.75; stroke-linejoin: miter"/>
     <use xlink:href="#m97a3148eaf" x="769.573636" y="272.66832" style="fill: #5ec962; stroke: #ffffff; stroke-width: 0.75; stroke-linejoin: miter"/>
     <use xlink:href="#m97a3148eaf" x="900.836691" y="264.927979" style="fill: #5ec962; stroke: #ffffff; stroke-width: 0.75; stroke-linejoin: miter"/>
     <use xlink:href="#m97a3148eaf" x="1060.486364" y="233.818888" style="fill: #5ec962; stroke: #ffffff; stroke-width: 0.75; stroke-linejoin: miter"/>
    </g>
   </g>
   <g id="line2d_24">
    <path d="M 187.748182 477.007455 
L 478.660909 458.188877 
L 665.966869 421.542735 
L 769.573636 380.974856 
L 900.836691 307.998283 
L 1060.486364 143.543683 
L 1220.705613 202.292712 
L 1351.399091 100.254295 
L 1511.61834 101.241037 
" clip-path="url(#p433027d0e0)" style="fill: none; stroke: #90d743; stroke-width: 2.5; stroke-linecap: round"/>
    <defs>
     <path id="m3d2e4fcfff" d="M -1.5 -2.598076 
L -1.299038 -0.75 
L -3 -0 
L -1.299038 0.75 
L -1.5 2.598076 
L -0 1.5 
L 1.5 2.598076 
L 1.299038 0.75 
L 3 0 
L 1.299038 -0.75 
L 1.5 -2.598076 
L 0 -1.5 
z
" style="stroke: #ffffff; stroke-width: 0.75; stroke-linejoin: bevel"/>
    </defs>
    <g clip-path="url(#p433027d0e0)">
     <use xlink:href="#m3d2e4fcfff" x="187.748182" y="477.007455" style="fill: #90d743; stroke: #ffffff; stroke-width: 0.75; stroke-linejoin: bevel"/>
     <use xlink:href="#m3d2e4fcfff" x="478.660909" y="458.188877" style="fill: #90d743; stroke: #ffffff; stroke-width: 0.75; stroke-linejoin: bevel"/>
     <use xlink:href="#m3d2e4fcfff" x="665.966869" y="421.542735" style="fill: #90d743; stroke: #ffffff; stroke-width: 0.75; stroke-linejoin: bevel"/>
     <use xlink:href="#m3d2e4fcfff" x="769.573636" y="380.974856" style="fill: #90d743; stroke: #ffffff; stroke-width: 0.75; stroke-linejoin: bevel"/>
     <use xlink:href="#m3d2e4fcfff" x="900.836691" y="307.998283" style="fill: #90d743; stroke: #ffffff; stroke-width: 0.75; stroke-linejoin: bevel"/>
     <use xlink:href="#m3d2e4fcfff" x="1060.486364" y="143.543683" style="fill: #90d743; stroke: #ffffff; stroke-width: 0.75; stroke-linejoin: bevel"/>
     <use xlink:href="#m3d2e4fcfff" x="1220.705613" y="202.292712" style="fill: #90d743; stroke: #ffffff; stroke-width: 0.75; stroke-linejoin: bevel"/>
     <use xlink:href="#m3d2e4fcfff" x="1351.399091" y="100.254295" style="fill: #90d743; stroke: #ffffff; stroke-width: 0.75; stroke-linejoin: bevel"/>
     <use xlink:href="#m3d2e4fcfff" x="1511.61834" y="101.241037" style="fill: #90d743; stroke: #ffffff; stroke-width: 0.75; stroke-linejoin: bevel"/>
    </g>
   </g>
   <g id="line2d_25">
    <path d="M 187.748182 476.993297 
L 478.660909 458.119151 
L 665.966869 421.442774 
L 769.573636 379.997338 
L 900.836691 305.115619 
L 1060.486364 138.794927 
L 1220.705613 196.925141 
L 1351.399091 93.829109 
L 1511.61834 95.707312 
L 1642.311818 74.676545 
" clip-path="url(#p433027d0e0)" style="fill: none; stroke: #c8e020; stroke-width: 2.5; stroke-linecap: round"/>
    <defs>
     <path id="mc0e26c2d3e" d="M -1.5 -2.598076 
L -3 -0 
L -1.5 2.598076 
L 1.5 2.598076 
L 3 0 
L 1.5 -2.598076 
z
" style="stroke: #ffffff; stroke-width: 0.75; stroke-linejoin: miter"/>
    </defs>
    <g clip-path="url(#p433027d0e0)">
     <use xlink:href="#mc0e26c2d3e" x="187.748182" y="476.993297" style="fill: #c8e020; stroke: #ffffff; stroke-width: 0.75; stroke-linejoin: miter"/>
     <use xlink:href="#mc0e26c2d3e" x="478.660909" y="458.119151" style="fill: #c8e020; stroke: #ffffff; stroke-width: 0.75; stroke-linejoin: miter"/>
     <use xlink:href="#mc0e26c2d3e" x="665.966869" y="421.442774" style="fill: #c8e020; stroke: #ffffff; stroke-width: 0.75; stroke-linejoin: miter"/>
     <use xlink:href="#mc0e26c2d3e" x="769.573636" y="379.997338" style="fill: #c8e020; stroke: #ffffff; stroke-width: 0.75; stroke-linejoin: miter"/>
     <use xlink:href="#mc0e26c2d3e" x="900.836691" y="305.115619" style="fill: #c8e020; stroke: #ffffff; stroke-width: 0.75; stroke-linejoin: miter"/>
     <use xlink:href="#mc0e26c2d3e" x="1060.486364" y="138.794927" style="fill: #c8e020; stroke: #ffffff; stroke-width: 0.75; stroke-linejoin: miter"/>
     <use xlink:href="#mc0e26c2d3e" x="1220.705613" y="196.925141" style="fill: #c8e020; stroke: #ffffff; stroke-width: 0.75; stroke-linejoin: miter"/>
     <use xlink:href="#mc0e26c2d3e" x="1351.399091" y="93.829109" style="fill: #c8e020; stroke: #ffffff; stroke-width: 0.75; stroke-linejoin: miter"/>
     <use xlink:href="#mc0e26c2d3e" x="1511.61834" y="95.707312" style="fill: #c8e020; stroke: #ffffff; stroke-width: 0.75; stroke-linejoin: miter"/>
     <use xlink:href="#mc0e26c2d3e" x="1642.311818" y="74.676545" style="fill: #c8e020; stroke: #ffffff; stroke-width: 0.75; stroke-linejoin: miter"/>
    </g>
   </g>
   <g id="line2d_26"/>
   <g id="line2d_27"/>
   <g id="line2d_28"/>
   <g id="line2d_29"/>
   <g id="line2d_30"/>
   <g id="line2d_31"/>
   <g id="line2d_32"/>
   <g id="line2d_33"/>
   <g id="line2d_34"/>
   <g id="line2d_35"/>
   <g id="line2d_36"/>
   <g id="patch_3">
    <path d="M 115.02 497.124 
L 115.02 54.56 
" style="fill: none; stroke: #cccccc; stroke-width: 1.25; stroke-linejoin: miter; stroke-linecap: square"/>
   </g>
   <g id="patch_4">
    <path d="M 1715.04 497.124 
L 1715.04 54.56 
" style="fill: none; stroke: #cccccc; stroke-width: 1.25; stroke-linejoin: miter; stroke-linecap: square"/>
   </g>
   <g id="patch_5">
    <path d="M 115.02 497.124 
L 1715.04 497.124 
" style="fill: none; stroke: #cccccc; stroke-width: 1.25; stroke-linejoin: miter; stroke-linecap: square"/>
   </g>
   <g id="patch_6">
    <path d="M 115.02 54.56 
L 1715.04 54.56 
" style="fill: none; stroke: #cccccc; stroke-width: 1.25; stroke-linejoin: miter; stroke-linecap: square"/>
   </g>
   <g id="text_17">
    <!-- Performance Comparison (GFLOPS/s vs N) -->
    <g style="fill: #262626" transform="translate(621.17 34.56) scale(0.28 -0.28)">
     <defs>
      <path id="DejaVuSans-43" d="M 4122 4306 
L 4122 3641 
Q 3803 3938 3442 4084 
Q 3081 4231 2675 4231 
Q 1875 4231 1450 3742 
Q 1025 3253 1025 2328 
Q 1025 1406 1450 917 
Q 1875 428 2675 428 
Q 3081 428 3442 575 
Q 3803 722 4122 1019 
L 4122 359 
Q 3791 134 3420 21 
Q 3050 -91 2638 -91 
Q 1578 -91 968 557 
Q 359 1206 359 2328 
Q 359 3453 968 4101 
Q 1578 4750 2638 4750 
Q 3056 4750 3426 4639 
Q 3797 4528 4122 4306 
z
" transform="scale(0.015625)"/>
      <path id="DejaVuSans-70" d="M 1159 525 
L 1159 -1331 
L 581 -1331 
L 581 3500 
L 1159 3500 
L 1159 2969 
Q 1341 3281 1617 3432 
Q 1894 3584 2278 3584 
Q 2916 3584 3314 3078 
Q 3713 2572 3713 1747 
Q 3713 922 3314 415 
Q 2916 -91 2278 -91 
Q 1894 -91 1617 61 
Q 1341 213 1159 525 
z
M 3116 1747 
Q 3116 2381 2855 2742 
Q 2594 3103 2138 3103 
Q 1681 3103 1420 2742 
Q 1159 2381 1159 1747 
Q 1159 1113 1420 752 
Q 1681 391 2138 391 
Q 2594 391 2855 752 
Q 3116 1113 3116 1747 
z
" transform="scale(0.015625)"/>
      <path id="DejaVuSans-76" d="M 191 3500 
L 800 3500 
L 1894 563 
L 2988 3500 
L 3597 3500 
L 2284 0 
L 1503 0 
L 191 3500 
z
" transform="scale(0.015625)"/>
     </defs>
     <use xlink:href="#DejaVuSans-50"/>
     <use xlink:href="#DejaVuSans-65" x="56.677734"/>
     <use xlink:href="#DejaVuSans-72" x="118.201172"/>
     <use xlink:href="#DejaVuSans-66" x="159.314453"/>
     <use xlink:href="#DejaVuSans-6f" x="194.519531"/>
     <use xlink:href="#DejaVuSans-72" x="255.701172"/>
     <use xlink:href="#DejaVuSans-6d" x="295.064453"/>
     <use xlink:href="#DejaVuSans-61" x="392.476562"/>
     <use xlink:href="#DejaVuSans-6e" x="453.755859"/>
     <use xlink:href="#DejaVuSans-63" x="517.134766"/>
     <use xlink:href="#DejaVuSans-65" x="572.115234"/>
     <use xlink:href="#DejaVuSans-20" x="633.638672"/>
     <use xlink:href="#DejaVuSans-43" x="665.425781"/>
     <use xlink:href="#DejaVuSans-6f" x="735.25"/>
     <use xlink:href="#DejaVuSans-6d" x="796.431641"/>
     <use xlink:href="#DejaVuSans-70" x="893.84375"/>
     <use xlink:href="#DejaVuSans-61" x="957.320312"/>
     <use xlink:href="#DejaVuSans-72" x="1018.599609"/>
     <use xlink:href="#DejaVuSans-69" x="1059.712891"/>
     <use xlink:href="#DejaVuSans-73" x="1087.496094"/>
     <use xlink:href="#DejaVuSans-6f" x="1139.595703"/>
     <use xlink:href="#DejaVuSans-6e" x="1200.777344"/>
     <use xlink:href="#DejaVuSans-20" x="1264.15625"/>
     <use xlink:href="#DejaVuSans-28" x="1295.943359"/>
     <use xlink:href="#DejaVuSans-47" x="1334.957031"/>
     <use xlink:href="#DejaVuSans-46" x="1412.447266"/>
     <use xlink:href="#DejaVuSans-4c" x="1469.966797"/>
     <use xlink:href="#DejaVuSans-4f" x="1522.054688"/>
     <use xlink:href="#DejaVuSans-50" x="1600.765625"/>
     <use xlink:href="#DejaVuSans-53" x="1661.068359"/>
     <use xlink:href="#DejaVuSans-2f" x="1724.544922"/>
     <use xlink:href="#DejaVuSans-73" x="1758.236328"/>
     <use xlink:href="#DejaVuSans-20" x="1810.335938"/>
     <use xlink:href="#DejaVuSans-76" x="1842.123047"/>
     <use xlink:href="#DejaVuSans-73" x="1901.302734"/>
     <use xlink:href="#DejaVuSans-20" x="1953.402344"/>
     <use xlink:href="#DejaVuSans-4e" x="1985.189453"/>
     <use xlink:href="#DejaVuSans-29" x="2059.994141"/>
    </g>
   </g>
   <g id="legend_1">
    <g id="patch_7">
     <path d="M 126.22 360.79375 
L 235.585625 360.79375 
Q 238.785625 360.79375 238.785625 357.59375 
L 238.785625 65.76 
Q 238.785625 62.56 235.585625 62.56 
L 126.22 62.56 
Q 123.02 62.56 123.02 65.76 
L 123.02 357.59375 
Q 123.02 360.79375 126.22 360.79375 
z
" style="fill: #ffffff; opacity: 0.8; stroke: #cccccc; stroke-linejoin: miter"/>
    </g>
    <g id="text_18">
     <!-- Version -->
     <g style="fill: #262626" transform="translate(129.42 90.235625) scale(0.28 -0.28)">
      <defs>
       <path id="DejaVuSans-56" d="M 1831 0 
L 50 4666 
L 709 4666 
L 2188 738 
L 3669 4666 
L 4325 4666 
L 2547 0 
L 1831 0 
z
" transform="scale(0.015625)"/>
      </defs>
      <use xlink:href="#DejaVuSans-56"/>
      <use xlink:href="#DejaVuSans-65" x="60.658203"/>
      <use xlink:href="#DejaVuSans-72" x="122.181641"/>
      <use xlink:href="#DejaVuSans-73" x="163.294922"/>
      <use xlink:href="#DejaVuSans-69" x="215.394531"/>
      <use xlink:href="#DejaVuSans-6f" x="243.177734"/>
      <use xlink:href="#DejaVuSans-6e" x="304.359375"/>
     </g>
    </g>
    <g id="line2d_37">
     <path d="M 143.587812 110.61625 
L 159.587812 110.61625 
L 175.587812 110.61625 
" style="fill: none; stroke: #481f70; stroke-width: 1.5; stroke-linecap: round"/>
     <defs>
      <path id="m33f164fae2" d="M 0 3 
C 0.795609 3 1.55874 2.683901 2.12132 2.12132 
C 2.683901 1.55874 3 0.795609 3 0 
C 3 -0.795609 2.683901 -1.55874 2.12132 -2.12132 
C 1.55874 -2.683901 0.795609 -3 0 -3 
C -0.795609 -3 -1.55874 -2.683901 -2.12132 -2.12132 
C -2.683901 -1.55874 -3 -0.795609 -3 0 
C -3 0.795609 -2.683901 1.55874 -2.12132 2.12132 
C -1.55874 2.683901 -0.795609 3 0 3 
z
" style="stroke: #481f70"/>
     </defs>
     <g>
      <use xlink:href="#m33f164fae2" x="159.587812" y="110.61625" style="fill: #481f70; stroke: #481f70"/>
     </g>
    </g>
    <g id="text_19">
     <!-- v0 -->
     <g style="fill: #262626" transform="translate(188.387812 116.21625) scale(0.16 -0.16)">
      <use xlink:href="#DejaVuSans-76"/>
      <use xlink:href="#DejaVuSans-30" x="59.179688"/>
     </g>
    </g>
    <g id="line2d_38">
     <path d="M 143.587812 134.10125 
L 159.587812 134.10125 
L 175.587812 134.10125 
" style="fill: none; stroke: #443983; stroke-width: 1.5; stroke-linecap: round"/>
     <defs>
      <path id="mab2842744f" d="M -1.5 3 
L 0 1.5 
L 1.5 3 
L 3 1.5 
L 1.5 0 
L 3 -1.5 
L 1.5 -3 
L 0 -1.5 
L -1.5 -3 
L -3 -1.5 
L -1.5 0 
L -3 1.5 
z
" style="stroke: #443983; stroke-linejoin: miter"/>
     </defs>
     <g>
      <use xlink:href="#mab2842744f" x="159.587812" y="134.10125" style="fill: #443983; stroke: #443983; stroke-linejoin: miter"/>
     </g>
    </g>
    <g id="text_20">
     <!-- v1 -->
     <g style="fill: #262626" transform="translate(188.387812 139.70125) scale(0.16 -0.16)">
      <use xlink:href="#DejaVuSans-76"/>
      <use xlink:href="#DejaVuSans-31" x="59.179688"/>
     </g>
    </g>
    <g id="line2d_39">
     <path d="M 143.587812 157.58625 
L 159.587812 157.58625 
L 175.587812 157.58625 
" style="fill: none; stroke: #3b528b; stroke-width: 1.5; stroke-linecap: round"/>
     <defs>
      <path id="mb1617e1b8e" d="M -2.12132 -2.12132 
L -2.12132 2.12132 
L 2.12132 2.12132 
L 2.12132 -2.12132 
z
" style="stroke: #3b528b; stroke-linejoin: miter"/>
     </defs>
     <g>
      <use xlink:href="#mb1617e1b8e" x="159.587812" y="157.58625" style="fill: #3b528b; stroke: #3b528b; stroke-linejoin: miter"/>
     </g>
    </g>
    <g id="text_21">
     <!-- v2 -->
     <g style="fill: #262626" transform="translate(188.387812 163.18625) scale(0.16 -0.16)">
      <use xlink:href="#DejaVuSans-76"/>
      <use xlink:href="#DejaVuSans-32" x="59.179688"/>
     </g>
    </g>
    <g id="line2d_40">
     <path d="M 143.587812 181.07125 
L 159.587812 181.07125 
L 175.587812 181.07125 
" style="fill: none; stroke: #31688e; stroke-width: 1.5; stroke-linecap: round"/>
     <defs>
      <path id="m3dc046165f" d="M -1 3 
L 1 3 
L 1 1 
L 3 1 
L 3 -1 
L 1 -1 
L 1 -3 
L -1 -3 
L -1 -1 
L -3 -1 
L -3 1 
L -1 1 
z
" style="stroke: #31688e; stroke-linejoin: miter"/>
     </defs>
     <g>
      <use xlink:href="#m3dc046165f" x="159.587812" y="181.07125" style="fill: #31688e; stroke: #31688e; stroke-linejoin: miter"/>
     </g>
    </g>
    <g id="text_22">
     <!-- v3 -->
     <g style="fill: #262626" transform="translate(188.387812 186.67125) scale(0.16 -0.16)">
      <use xlink:href="#DejaVuSans-76"/>
      <use xlink:href="#DejaVuSans-33" x="59.179688"/>
     </g>
    </g>
    <g id="line2d_41">
     <path d="M 143.587812 204.55625 
L 159.587812 204.55625 
L 175.587812 204.55625 
" style="fill: none; stroke: #287c8e; stroke-width: 1.5; stroke-linecap: round"/>
     <defs>
      <path id="mc65e9dd78c" d="M 0 -3 
L -3 -0 
L -0 3 
L 3 0 
z
" style="stroke: #287c8e; stroke-linejoin: miter"/>
     </defs>
     <g>
      <use xlink:href="#mc65e9dd78c" x="159.587812" y="204.55625" style="fill: #287c8e; stroke: #287c8e; stroke-linejoin: miter"/>
     </g>
    </g>
    <g id="text_23">
     <!-- v4 -->
     <g style="fill: #262626" transform="translate(188.387812 210.15625) scale(0.16 -0.16)">
      <use xlink:href="#DejaVuSans-76"/>
      <use xlink:href="#DejaVuSans-34" x="59.179688"/>
     </g>
    </g>
    <g id="line2d_42">
     <path d="M 143.587812 228.04125 
L 159.587812 228.04125 
L 175.587812 228.04125 
" style="fill: none; stroke: #21918c; stroke-width: 1.5; stroke-linecap: round"/>
     <defs>
      <path id="m87a03840a7" d="M 0 -3 
L -1.06066 -1.06066 
L -3 -0 
L -1.06066 1.06066 
L -0 3 
L 1.06066 1.06066 
L 3 0 
L 1.06066 -1.06066 
z
" style="stroke: #21918c; stroke-linejoin: bevel"/>
     </defs>
     <g>
      <use xlink:href="#m87a03840a7" x="159.587812" y="228.04125" style="fill: #21918c; stroke: #21918c; stroke-linejoin: bevel"/>
     </g>
    </g>
    <g id="text_24">
     <!-- v5 -->
     <g style="fill: #262626" transform="translate(188.387812 233.64125) scale(0.16 -0.16)">
      <use xlink:href="#DejaVuSans-76"/>
      <use xlink:href="#DejaVuSans-35" x="59.179688"/>
     </g>
    </g>
    <g id="line2d_43">
     <path d="M 143.587812 251.52625 
L 159.587812 251.52625 
L 175.587812 251.52625 
" style="fill: none; stroke: #20a486; stroke-width: 1.5; stroke-linecap: round"/>
     <defs>
      <path id="m0c5a6cbec8" d="M 0 -3 
L -3 3 
L 3 3 
z
" style="stroke: #20a486; stroke-linejoin: miter"/>
     </defs>
     <g>
      <use xlink:href="#m0c5a6cbec8" x="159.587812" y="251.52625" style="fill: #20a486; stroke: #20a486; stroke-linejoin: miter"/>
     </g>
    </g>
    <g id="text_25">
     <!-- v6 -->
     <g style="fill: #262626" transform="translate(188.387812 257.12625) scale(0.16 -0.16)">
      <use xlink:href="#DejaVuSans-76"/>
      <use xlink:href="#DejaVuSans-36" x="59.179688"/>
     </g>
    </g>
    <g id="line2d_44">
     <path d="M 143.587812 275.01125 
L 159.587812 275.01125 
L 175.587812 275.01125 
" style="fill: none; stroke: #35b779; stroke-width: 1.5; stroke-linecap: round"/>
     <defs>
      <path id="m0b826356d8" d="M -2.12132 -2.12132 
L -1.5 -0 
L -2.12132 2.12132 
L -0 1.5 
L 2.12132 2.12132 
L 1.5 0 
L 2.12132 -2.12132 
L 0 -1.5 
z
" style="stroke: #35b779; stroke-linejoin: bevel"/>
     </defs>
     <g>
      <use xlink:href="#m0b826356d8" x="159.587812" y="275.01125" style="fill: #35b779; stroke: #35b779; stroke-linejoin: bevel"/>
     </g>
    </g>
    <g id="text_26">
     <!-- v7 -->
     <g style="fill: #262626" transform="translate(188.387812 280.61125) scale(0.16 -0.16)">
      <use xlink:href="#DejaVuSans-76"/>
      <use xlink:href="#DejaVuSans-37" x="59.179688"/>
     </g>
    </g>
    <g id="line2d_45">
     <path d="M 143.587812 298.49625 
L 159.587812 298.49625 
L 175.587812 298.49625 
" style="fill: none; stroke: #5ec962; stroke-width: 1.5; stroke-linecap: round"/>
     <defs>
      <path id="mfeeffa7200" d="M -0 3 
L 3 -3 
L -3 -3 
z
" style="stroke: #5ec962; stroke-linejoin: miter"/>
     </defs>
     <g>
      <use xlink:href="#mfeeffa7200" x="159.587812" y="298.49625" style="fill: #5ec962; stroke: #5ec962; stroke-linejoin: miter"/>
     </g>
    </g>
    <g id="text_27">
     <!-- v8 -->
     <g style="fill: #262626" transform="translate(188.387812 304.09625) scale(0.16 -0.16)">
      <use xlink:href="#DejaVuSans-76"/>
      <use xlink:href="#DejaVuSans-38" x="59.179688"/>
     </g>
    </g>
    <g id="line2d_46">
     <path d="M 143.587812 321.98125 
L 159.587812 321.98125 
L 175.587812 321.98125 
" style="fill: none; stroke: #90d743; stroke-width: 1.5; stroke-linecap: round"/>
     <defs>
      <path id="mb3b7fd4d65" d="M -1.5 -2.598076 
L -1.299038 -0.75 
L -3 -0 
L -1.299038 0.75 
L -1.5 2.598076 
L -0 1.5 
L 1.5 2.598076 
L 1.299038 0.75 
L 3 0 
L 1.299038 -0.75 
L 1.5 -2.598076 
L 0 -1.5 
z
" style="stroke: #90d743; stroke-linejoin: bevel"/>
     </defs>
     <g>
      <use xlink:href="#mb3b7fd4d65" x="159.587812" y="321.98125" style="fill: #90d743; stroke: #90d743; stroke-linejoin: bevel"/>
     </g>
    </g>
    <g id="text_28">
     <!-- v9 -->
     <g style="fill: #262626" transform="translate(188.387812 327.58125) scale(0.16 -0.16)">
      <use xlink:href="#DejaVuSans-76"/>
      <use xlink:href="#DejaVuSans-39" x="59.179688"/>
     </g>
    </g>
    <g id="line2d_47">
     <path d="M 143.587812 345.46625 
L 159.587812 345.46625 
L 175.587812 345.46625 
" style="fill: none; stroke: #c8e020; stroke-width: 1.5; stroke-linecap: round"/>
     <defs>
      <path id="m980a438728" d="M -1.5 -2.598076 
L -3 -0 
L -1.5 2.598076 
L 1.5 2.598076 
L 3 0 
L 1.5 -2.598076 
z
" style="stroke: #c8e020; stroke-linejoin: miter"/>
     </defs>
     <g>
      <use xlink:href="#m980a438728" x="159.587812" y="345.46625" style="fill: #c8e020; stroke: #c8e020; stroke-linejoin: miter"/>
     </g>
    </g>
    <g id="text_29">
     <!-- v10 -->
     <g style="fill: #262626" transform="translate(188.387812 351.06625) scale(0.16 -0.16)">
      <use xlink:href="#DejaVuSans-76"/>
      <use xlink:href="#DejaVuSans-31" x="59.179688"/>
      <use xlink:href="#DejaVuSans-30" x="122.802734"/>
     </g>
    </g>
   </g>
  </g>
 </g>
 <defs>
  <clipPath id="p433027d0e0">
   <rect x="115.02" y="54.56" width="1600.02" height="442.564"/>
  </clipPath>
 </defs>
</svg>
